<?xml version="1.0" encoding="utf-8"?>
<!-- Generator: Adobe Illustrator 28.2.0, SVG Export Plug-In . SVG Version: 6.00 Build 0)  -->
<svg version="1.1" id="Layer_1" xmlns="http://www.w3.org/2000/svg" xmlns:xlink="http://www.w3.org/1999/xlink" x="0px" y="0px"
	 viewBox="0 0 114.93 144.7" style="enable-background:new 0 0 114.93 144.7;" xml:space="preserve">
<style type="text/css">
	.st0{fill:#010101;}
</style>
<g>
	<path class="st0" d="M3.49,56.42c0,35.48,28.89,84.55,54.4,84.55c24.02,0,54.4-49.07,54.4-84.55S87.93,3.05,57.89,3.05
		S3.49,20.94,3.49,56.42z M72.02,82.65c6.64-6.64,15.91-9.06,24.46-7.25c1.81,8.55-0.61,17.82-7.25,24.46
		c-6.64,6.64-15.91,9.06-24.46,7.25C62.96,98.56,65.38,89.29,72.02,82.65z M19.29,75.4c8.55-1.81,17.82,0.61,24.46,7.25
		c6.64,6.64,9.06,15.91,7.25,24.46c-8.55,1.81-17.82-0.61-24.46-7.25C19.9,93.22,17.48,83.95,19.29,75.4z"/>
</g>
</svg>
