<?xml version="1.0" encoding="utf-8"?>
<!-- Generator: Adobe Illustrator 28.2.0, SVG Export Plug-In . SVG Version: 6.00 Build 0)  -->
<svg version="1.1" id="Layer_1" xmlns="http://www.w3.org/2000/svg" xmlns:xlink="http://www.w3.org/1999/xlink" x="0px" y="0px"
	 viewBox="0 0 512 143.56" style="enable-background:new 0 0 512 143.56;" xml:space="preserve">
<style type="text/css">
	.st0{fill:#010101;}
</style>
<g>
	<g>
		<path class="st0" d="M2.09,55.74c0,35.48,28.89,84.55,54.4,84.55c24.02,0,54.4-49.07,54.4-84.55S86.53,2.37,56.49,2.37
			S2.09,20.26,2.09,55.74z M70.62,81.97c6.64-6.64,15.91-9.06,24.46-7.25c1.81,8.55-0.61,17.82-7.25,24.46
			c-6.64,6.64-15.91,9.06-24.46,7.25C61.56,97.88,63.98,88.62,70.62,81.97z M17.89,74.72c8.55-1.81,17.82,0.61,24.46,7.25
			s9.06,15.91,7.25,24.46c-8.55,1.81-17.82-0.61-24.46-7.25C18.5,92.54,16.08,83.28,17.89,74.72z"/>
	</g>
	<g>
		<path d="M134.51,25.48l20.08,24.16l21.05-24.16h14.17L161.78,57.7l28.23,33.28h-13.97l-21.73-26l-22.32,26h-14.17l29.3-34.15
			l-26.58-31.34H134.51z"/>
		<path d="M211.07,90.98h-11.45V38.58c0-8.54,4.75-14.26,14.55-14.26c8.73,0,12.91,4.66,15.33,12.13l15.91,41.82
			c0.68,1.65,1.94,2.72,3.69,2.72c1.94,0,3.4-1.46,3.4-3.69V38.58c0-8.54,4.75-14.26,14.46-14.26c8.73,0,12.9,4.66,15.52,12.13
			l20.28,54.53h-12.32l-19.5-52.78c-0.68-1.65-1.94-2.81-3.69-2.81c-1.94,0-3.3,1.46-3.3,3.78v38.62c0,8.63-4.95,14.36-14.55,14.36
			c-8.64,0-12.9-4.66-15.43-12.13l-15.91-41.82c-0.68-1.65-1.94-2.81-3.59-2.81c-2.04,0-3.4,1.46-3.4,3.78V90.98z"/>
		<path d="M344.86,25.48c19.02,0,29.59,10.87,29.59,32.89c0,21.93-10.48,32.6-29.59,32.6h-8.93c-19.11,0-29.59-10.67-29.59-32.6
			c0-22.02,10.58-32.89,29.59-32.89H344.86z M335.94,36.93c-12.61,0-18.14,6.4-18.14,21.44c0,14.94,5.43,21.15,18.14,21.15h8.93
			c12.61,0,18.05-6.21,18.05-21.25c0-14.94-5.43-21.35-18.05-21.35H335.94z"/>
		<path d="M421.32,25.48c14.75,0,21.05,9.12,21.05,19.6c0,9.9-5.72,20.57-21.05,20.57h-20.38c-1.07,0-1.65,0.48-1.65,1.65v23.67
			h-11.45V65.07c0-7.37,3.11-10.38,10.29-10.38h23.58c6.5,0,9.12-4.46,9.12-9.02c0-4.75-2.81-8.73-9.02-8.73h-34.06V25.48H421.32z"
			/>
		<path d="M504.37,25.48v11.45H470.8c-5.92,0-8.54,3.2-8.54,7.76c0,3.98,2.04,7.76,9.7,7.76h15.33c17.85,0,22.02,9.9,22.02,19.31
			c0,11.06-5.92,19.21-20.86,19.21h-36.48V79.53h36.87c6.21,0,9.02-3.4,9.02-8.15c0-4.27-2.23-8.15-10.28-8.15h-15.23
			c-17.46,0-21.54-9.8-21.54-18.92c0-10.87,5.82-18.82,20.38-18.82H504.37z"/>
	</g>
	<g>
		<path d="M345.25,120.28h-3.91l7.12-18.03c0.75-1.89,2.13-2.61,4.27-2.61c2.1,0,3.49,0.72,4.21,2.61l6.85,18.03h-3.94l-6.16-16.32
			c-0.18-0.48-0.51-0.69-0.99-0.69c-0.48,0-0.81,0.21-1.02,0.69L345.25,120.28z"/>
		<path d="M380.05,104.41v3.06h-7.87c-2.76,0-3.97,1.44-3.97,4.87c0,3.42,1.2,4.84,3.97,4.84h7.87v3.1h-8.17
			c-4.24,0-6.88-2.58-6.88-7.93c0-5.35,2.64-7.93,6.88-7.93H380.05z"/>
		<path d="M398.13,104.41v3.06h-7.87c-2.76,0-3.97,1.44-3.97,4.87c0,3.42,1.2,4.84,3.97,4.84h7.87v3.1h-8.17
			c-4.24,0-6.88-2.58-6.88-7.93c0-5.35,2.64-7.93,6.88-7.93H398.13z"/>
		<path d="M412.26,104.41c3.76,0,5.35,1.8,5.35,4.87c0,2.91-1.47,4.57-5.38,4.57h-7.54v1.14c0,1.26,0.69,2.19,2.43,2.19h9.71v3.1
			h-9.71c-3.97,0-5.53-2.22-5.53-5.23v-5.41c0-3,1.56-5.23,5.53-5.23H412.26z M404.69,111.35h7.45c1.71,0,2.34-0.72,2.34-1.89
			c0-1.2-0.69-1.98-2.25-1.98h-5.11c-1.74,0-2.43,0.96-2.43,2.19V111.35z"/>
		<path d="M424.7,97.53v22.75h-3.19V97.53H424.7z"/>
		<path d="M439.6,104.41c3.76,0,5.35,1.8,5.35,4.87c0,2.91-1.47,4.57-5.38,4.57h-7.54v1.14c0,1.26,0.69,2.19,2.43,2.19h9.71v3.1
			h-9.71c-3.97,0-5.53-2.22-5.53-5.23v-5.41c0-3,1.56-5.23,5.53-5.23H439.6z M432.03,111.35h7.45c1.71,0,2.34-0.72,2.34-1.89
			c0-1.2-0.69-1.98-2.25-1.98h-5.11c-1.74,0-2.43,0.96-2.43,2.19V111.35z"/>
		<path d="M459.64,104.41v3.06h-5.59c-1.41,0-2.04,0.66-2.04,2.04v10.76h-3.18v-11.24c0-3.18,1.17-4.63,4.3-4.63H459.64z"/>
		<path d="M472.93,104.41c3.97,0,5.53,2.22,5.53,5.23v7.45c0,2.28-0.6,3.18-3.28,3.18h-7.42c-3.76,0-5.32-1.83-5.32-4.84
			c0-2.88,1.44-4.57,5.35-4.57h7.54v-1.2c0-1.23-0.69-2.19-2.43-2.19h-9.49v-3.06H472.93z M475.33,116.37v-2.98h-7.48
			c-1.68,0-2.28,0.69-2.28,1.86c0,1.17,0.63,1.92,2.22,1.92h6.67C475.09,117.18,475.33,116.94,475.33,116.37z"/>
		<path d="M483.53,104.41v-3.76h3.22v3.76h4.39v3.06h-4.39v7.51c0,1.77,0.63,2.37,2.13,2.37h2.19v2.92h-2.86
			c-3.28,0-4.69-1.32-4.69-5.47v-7.33h-2.16v-3.06H483.53z"/>
		<path d="M504.57,104.41c3.76,0,5.35,1.8,5.35,4.87c0,2.91-1.47,4.57-5.38,4.57h-7.54v1.14c0,1.26,0.69,2.19,2.43,2.19h9.71v3.1
			h-9.71c-3.97,0-5.53-2.22-5.53-5.23v-5.41c0-3,1.56-5.23,5.53-5.23H504.57z M496.99,111.35h7.45c1.71,0,2.34-0.72,2.34-1.89
			c0-1.2-0.69-1.98-2.25-1.98h-5.11c-1.74,0-2.43,0.96-2.43,2.19V111.35z"/>
	</g>
</g>
</svg>
